/* XPM */
static char * 4_xpm[] = {
"30 30 7 1",
" 	c #282C3C",
".	c #B8CCD8",
"+	c #88A3BC",
"@	c #5E718E",
"#	c #8FD032",
"$	c #61A53F",
"%	c #485262",
"  ..........................  ",
" ............................ ",
"++++++++++++++++++++++++++++++",
"+++++++@@@@@@@@@@@@@@@@+++++++",
"+++++++@@@@@@@@@@@@@@@@+++++++",
"+++++@@................@@+++++",
"+++++@@++++++++++++++++@@+++++",
"+++++@@++@++@++++@++@++@@+++++",
"+++++@@++@++@++++@++@++@@+++++",
"+++++@@++@++@++++@++@++@@+++++",
"+++++@@++@++@++++@++@++@@+++++",
"+++++@@++@++@++++@++@++@@+++++",
"+++++@@++@++@++++@++@++@@+++++",
"+++++@@++@++@++++@++@++@@+++++",
"+++++@@++@++@++++@++@++@@+++++",
"+++++@@++@++@++++@++@++@@+++++",
"+++++@@++@++@++++@++@++@@+++++",
"+++++@@++@++@++++@++@++@@+++++",
"+++@@..++.++.++++.++.++..@@+++",
"+++@@++++++++++++++++++++@@+++",
"+++@@+++++++++@@+++++++++@@+++",
"+++@@++++++++@##@++++++++@@+++",
"+++@@+++++++@#$$#@+++++++@@+++",
"+++@@++++++@#$$$$#@++++++@@+++",
"+++@@++++++@$$$$$$@++++++@@+++",
"+++@@+++++++@$$$$@+++++++@@+++",
"+++@@++++++++@$$@++++++++@@+++",
"+++@@+++++++++@@+++++++++@@+++",
"+++@@++++++++++++++++++++@@+++",
"%%%%%%%%%%%%%%%%%%%%%%%%%%%%%%"};
