/* XPM */
static char * 1_xpm[] = {
"30 30 5 1",
" 	c #5E718E",
".	c #B8CCD8",
"+	c #485262",
"@	c #282C3C",
"#	c #88A3BC",
"                              ",
"  .                        .  ",
"  +                        +  ",
"                              ",
"  @@  @@  @@  @@  @@  @@  @@  ",
"  @@  @@  @@  @@  @@  @@  @@  ",
"  @@  @@  @@  @@  @@  @@  @@  ",
"  @@  @@  @@  @@  @@  @@  @@  ",
"  ##  ##  ##  ##  ##  ##  ##  ",
"                              ",
"  @@  @@  @@  @@  @@  @@  @@  ",
"  @@  @@  @@  @@  @@  @@  @@  ",
"  @@  @@  @@  @@  @@  @@  @@  ",
"  @@  @@  @@  @@  @@  @@  @@  ",
"  ##  ##  ##  ##  ##  ##  ##  ",
"                              ",
"  @@  @@  @@  @@  @@  @@  @@  ",
"  @@  @@  @@  @@  @@  @@  @@  ",
"  @@  @@  @@  @@  @@  @@  @@  ",
"  @@  @@  @@  @@  @@  @@  @@  ",
"  ##  ##  ##  ##  ##  ##  ##  ",
"                              ",
"  @@  @@  @@  @@  @@  @@  @@  ",
"  @@  @@  @@  @@  @@  @@  @@  ",
"  @@  @@  @@  @@  @@  @@  @@  ",
"  @@  @@  @@  @@  @@  @@  @@  ",
"  ##  ##  ##  ##  ##  ##  ##  ",
"                              ",
"  .                        .  ",
"  +                        +  "};
