/* XPM */
static char * 2_xpm[] = {
"30 30 7 1",
" 	c #88A3BC",
".	c #FFF089",
"+	c #5E718E",
"@	c #F8C53A",
"#	c #B8CCD8",
"$	c #E88A36",
"%	c #282C3C",
"      .....     .....     ....",
" ++++@@@@@+++++@@@@@+++++@@@@.",
" ++#@@@@@+++++@@@@@+++++@@.@@ ",
" +#..@@@+++++@@@@@+++++@@...+ ",
" +$.$@@+++++@@@@@+++++@@@$.%+ ",
" @@$@@+++++@@@@@+++++@@@@@%++ ",
".@@@@+++++@@@@@+++++@@@@@++++.",
".@@@+++++@@@@@+++++@@@@@++++@.",
".@@+++++@@@@@+++++@@@@@++++@@.",
".@+++++@@@@@+++++@@@@@++++@@@.",
".+++++@@@@@+++++@@@@@++++@@@@.",
" ++++@@@@@+++++@@@@@++++@@@@@ ",
" +++@@@@@+++++@@@@@++++@@@@@+ ",
" ++@@@@@+++++@@@@@++++@@@@@++ ",
" +@@@@@+++++@@@@@++++@@@@@+++ ",
" @@@@@+++++@@@@@++++@@@@@++++.",
".@@@@+++++@@@@@++++@@@@@++++@.",
".@@@+++++@@@@@++++@@@@@++++@@.",
".@@+++++@@@@@++++@@@@@++++@@@.",
".@+++++@@@@@++++@@@@@++++@@@@.",
".+++++@@@@@++++@@@@@++++@@@@@ ",
" ++++@@@@@++++@@@@@++++@@@@@+ ",
" +++@@@@@++++@@@@@++++@@@@@++ ",
" ++@@@@@++++@@@@@++++@@@@@+++ ",
" +@.@@@++++@@@@@++++@@@@@+#++ ",
" @...@++++@@@@@++++@@@@@+###+.",
".@$.$++++@@@@@++++@@@@@++%#%@.",
".@@$++++@@@@@++++@@@@@++++%@@.",
".@@++++@@@@@++++@@@@@+++++@@@.",
"..    .....    .....     ....."};
